<svg xmlns="http://www.w3.org/2000/svg" viewBox="0 0 24 24" fill="white" width="36" height="36">
  <path d="M12 2C6.48 2 2 6.48 2 12c0 1.85.5 3.58 1.35 5.08L2.5 22l5.15-1.7c1.43.88 3.12 1.4 4.95 1.4 5.52 0 10-4.48 10-10S17.52 2 12 2zm0 18c-1.62 0-3.15-.42-4.48-1.16l-.32-.2-3.32 1.1.93-3.38-.2-.34C4.48 14.83 4 13.45 4 12c0-4.41 3.59-8 8-8s8 3.59 8 8-3.59 8-8 8zm4.64-8.25c-.25-.12-1.48-.73-1.71-.81-.24-.07-.4-.11-.57.11-.17.23-.67.81-.81.97-.15.15-.29.17-.54.05-.25-.12-1.05-.39-2-1.23-.74-.66-1.23-1.47-1.38-1.72-.14-.25-.02-.38.11-.5.11-.1.25-.26.37-.4.13-.14.17-.24.26-.4.08-.17.04-.31-.02-.43-.07-.12-.57-1.37-.78-1.88-.2-.5-.41-.43-.57-.43-.15 0-.31-.02-.48-.02-.17 0-.44.06-.67.31-.23.25-.88.86-.88 2.1 0 1.24.9 2.44 1.03 2.6.13.17 1.77 2.7 4.3 3.78.6.26 1.07.42 1.43.54.6.19 1.15.16 1.58.1.48-.07 1.48-.6 1.69-1.19.21-.58.21-1.08.15-1.19-.06-.1-.2-.16-.44-.28z"/>
</svg>
